<?xml version="1.0" encoding="UTF-8" standalone="no"?>
<svg
   xmlns:dc="http://purl.org/dc/elements/1.1/"
   xmlns:cc="http://creativecommons.org/ns#"
   xmlns:rdf="http://www.w3.org/1999/02/22-rdf-syntax-ns#"
   xmlns:svg="http://www.w3.org/2000/svg"
   xmlns="http://www.w3.org/2000/svg"
   xmlns:sodipodi="http://sodipodi.sourceforge.net/DTD/sodipodi-0.dtd"
   xmlns:inkscape="http://www.inkscape.org/namespaces/inkscape"
   inkscape:version="1.0 (4035a4f, 2020-05-01)"
   sodipodi:docname="UNO_SF_ISP_Shield-brd.svg"
   id="svg3014"
   viewBox="0 0 30460 23010 "
   height="5.84454cm"
   width="7.73684cm"
   version="1.1">
  <metadata
     id="metadata3020">
    <rdf:RDF>
      <cc:Work
         rdf:about="">
        <dc:format>image/svg+xml</dc:format>
        <dc:type
           rdf:resource="http://purl.org/dc/dcmitype/StillImage" />
        <dc:title>SVG Picture created as UNO_SF_ISP_Shield-brd.svg date 2020/11/13 22:37:08 </dc:title>
      </cc:Work>
    </rdf:RDF>
  </metadata>
  <defs
     id="defs3018">
    <inkscape:path-effect
       hide_knots="false"
       only_selected="false"
       apply_with_radius="true"
       apply_no_radius="true"
       use_knot_distance="true"
       flexible="false"
       chamfer_steps="1"
       radius="0.5"
       mode="F"
       method="auto"
       unit="mm"
       satellites_param="F,0,0,1,0,1.8897638,0,1 @ F,0,0,1,0,1.8897638,0,1 @ F,0,0,1,0,1.8897638,0,1 @ F,0,0,1,0,1.8897638,0,1 @ F,0,0,1,0,1.8897638,0,1 @ F,0,0,1,0,1.8897638,0,1 @ F,0,0,1,0,1.8897638,0,1 @ F,0,0,1,0,1.8897638,0,1 @ F,0,0,1,0,1.8897638,0,1 @ F,0,0,1,0,1.8897638,0,1 @ F,0,0,1,0,1.8897638,0,1 @ F,0,0,1,0,1.8897638,0,1 @ F,0,0,1,0,1.8897638,0,1 @ F,0,0,1,0,1.8897638,0,1 @ F,0,0,1,0,1.8897638,0,1 @ F,0,0,1,0,1.8897638,0,1 @ F,0,0,1,0,1.8897638,0,1 @ F,0,0,1,0,1.8897638,0,1 @ F,0,0,1,0,1.8897638,0,1 @ F,0,0,1,0,1.8897638,0,1 @ F,0,0,1,0,1.8897638,0,1 @ F,0,0,1,0,1.8897638,0,1"
       lpeversion="1"
       is_visible="true"
       id="path-effect3744"
       effect="fillet_chamfer" />
    <inkscape:path-effect
       hide_knots="false"
       only_selected="false"
       apply_with_radius="true"
       apply_no_radius="true"
       use_knot_distance="true"
       flexible="false"
       chamfer_steps="1"
       radius="0.5"
       mode="F"
       method="auto"
       unit="mm"
       satellites_param="F,0,0,1,0,1.8897638,0,1 @ F,0,0,1,0,1.8897638,0,1 @ F,0,0,1,0,1.8897638,0,1 @ F,0,0,1,0,1.8897638,0,1 @ F,0,0,1,0,1.8897638,0,1 @ F,0,0,1,0,1.8897638,0,1 @ F,0,0,1,0,1.8897638,0,1 @ F,0,0,1,0,1.8897638,0,1 @ F,0,0,1,0,1.8897638,0,1 @ F,0,0,1,0,1.8897638,0,1 @ F,0,0,1,0,1.8897638,0,1 @ F,0,0,1,0,1.8897638,0,1 @ F,0,0,1,0,1.8897638,0,1 @ F,0,0,1,0,1.8897638,0,1 @ F,0,0,1,0,1.8897638,0,1 @ F,0,0,1,0,1.8897638,0,1 @ F,0,0,1,0,1.8897638,0,1 @ F,0,0,1,0,1.8897638,0,1 @ F,0,0,1,0,1.8897638,0,1 @ F,0,0,1,0,1.8897638,0,1 @ F,0,0,1,0,1.8897638,0,1 @ F,0,0,1,0,1.8897638,0,1"
       lpeversion="1"
       is_visible="true"
       id="path-effect3742"
       effect="fillet_chamfer" />
  </defs>
  <sodipodi:namedview
     inkscape:current-layer="svg3014"
     inkscape:window-maximized="0"
     inkscape:window-y="23"
     inkscape:window-x="0"
     inkscape:cy="98.313511"
     inkscape:cx="193.75274"
     inkscape:zoom="1.7638623"
     inkscape:document-units="mm"
     showgrid="false"
     id="namedview3016"
     inkscape:window-height="801"
     inkscape:window-width="1378"
     inkscape:pageshadow="2"
     inkscape:pageopacity="0"
     guidetolerance="10"
     gridtolerance="10"
     objecttolerance="10"
     borderopacity="1"
     bordercolor="#666666"
     pagecolor="#ffffff" />
  <title
     id="title1974">SVG Picture created as UNO_SF_ISP_Shield-brd.svg date 2020/11/13 22:37:08 </title>
  <desc
     id="desc1976">Picture generated by PCBNEW </desc>
  <g
     style="font-size:4861.11px;line-height:0.8;font-family:'Blackout Midnight';-inkscape-font-specification:'Blackout Midnight';stroke-width:104.167"
     id="text3585"
     aria-label="beat
farm">
    <path
       id="path3607"
       style="font-size:4861.11px;text-align:center;text-anchor:middle;stroke-width:104.167"
       d="m 19892.401,10959.881 q 218.75,0 369.445,92.361 150.694,87.5 243.055,223.611 97.222,136.111 140.972,296.528 43.75,160.417 43.75,296.528 0,199.305 -63.194,379.166 -58.334,179.861 -179.861,320.834 -116.667,136.111 -296.528,218.75 -179.861,77.777 -418.055,77.777 h -24.306 -1156.944 V 9248.7706 h 865.277 -48.611 24.306 q 267.361,0 466.666,68.0555 199.306,68.0555 325.695,184.7222 126.389,116.6666 189.583,272.2221 63.194,155.5555 63.194,335.4166 0,189.583 -53.472,345.139 -48.611,155.555 -131.25,267.361 -77.777,111.805 -175,175 -97.222,63.194 -184.722,63.194 z" />
    <path
       id="path3609"
       style="font-size:4861.11px;text-align:center;text-anchor:middle;stroke-width:104.167"
       d="m 23169.473,10060.576 h -1400 v 583.333 h 1030.555 v 816.667 h -1030.555 v 583.333 h 1400 v 816.666 H 20952.807 V 9243.9095 h 2216.666 z" />
    <path
       id="path3611"
       style="font-size:4861.11px;text-align:center;text-anchor:middle;stroke-width:104.167"
       d="m 25626.688,12860.575 -325.695,-952.777 h -704.861 l -320.833,952.777 h -928.472 l 1059.722,-3616.6655 h 1088.889 l 1059.722,3616.6655 z" />
    <path
       id="path3613"
       style="font-size:4861.11px;text-align:center;text-anchor:middle;stroke-width:104.167"
       d="m 28619.157,9243.9095 v 816.6665 h -821.528 v 2799.999 h -816.666 v -2799.999 h -821.528 v -816.6665 z" />
    <path
       id="path3615"
       style="font-size:4861.11px;text-align:center;text-anchor:middle;stroke-width:104.167"
       d="m 20273.808,13949.464 h -1399.999 v 583.333 h 1030.555 v 816.667 h -1030.555 v 1399.999 h -816.667 v -3616.666 h 2216.666 z" />
    <path
       id="path3617"
       style="font-size:4861.11px;text-align:center;text-anchor:middle;stroke-width:104.167"
       d="m 22232.456,16749.463 -325.694,-952.777 h -704.861 l -320.834,952.777 h -928.472 l 1059.722,-3616.666 h 1088.889 l 1059.722,3616.666 z" />
    <path
       id="path3619"
       style="font-size:4861.11px;text-align:center;text-anchor:middle;stroke-width:104.167"
       d="m 24653.137,16749.463 -486.111,-1176.388 h -9.722 v 1176.388 h -816.667 v -3616.666 h 1098.611 4.861 q 311.111,0 515.278,97.223 209.027,92.361 330.555,252.777 126.389,155.556 179.861,369.445 53.472,209.027 53.472,442.361 0,243.055 -82.638,432.638 -77.778,189.584 -189.584,320.834 -106.944,126.389 -218.75,194.444 -111.805,63.195 -175,63.195 l 734.028,1443.749 z" />
    <path
       id="path3621"
       style="font-size:4861.11px;text-align:center;text-anchor:middle;stroke-width:104.167"
       d="m 29025.629,13132.797 v 0 3616.666 h -865.278 v -1263.888 l -442.361,1263.888 h -524.999 l -452.084,-1302.777 v 1302.777 h -865.277 v -3616.666 h 831.25 l 748.611,2100 753.472,-2100 v 0 z" />
  </g>
</svg>
