M48
; DRILL file {KiCad (5.1.5-0-10_14)} date Friday, November 13, 2020 at 10:28:08 PM
; FORMAT={-:-/ absolute / metric / decimal}
; #@! TF.CreationDate,2020-11-13T22:28:08-08:00
; #@! TF.GenerationSoftware,Kicad,Pcbnew,(5.1.5-0-10_14)
FMAT,2
METRIC
T1C0.800
T2C0.900
T3C1.000
T4C1.016
T5C3.048
%
G90
G05
T1
X24.13Y-15.24
X39.37Y-15.24
X24.13Y-7.62
X39.37Y-7.62
X24.13Y-11.43
X39.37Y-11.43
T2
X52.07Y-10.16
X52.07Y-12.7
X46.99Y-10.16
X46.99Y-12.7
X57.35Y-10.16
X57.35Y-12.7
T3
X25.4Y-26.67
X25.4Y-29.21
X25.4Y-31.75
X27.94Y-26.67
X27.94Y-29.21
X27.94Y-31.75
T4
X27.94Y-50.8
X30.48Y-50.8
X33.02Y-50.8
X35.56Y-50.8
X38.1Y-50.8
X43.18Y-50.8
X45.72Y-50.8
X50.8Y-50.8
X53.34Y-50.8
X55.88Y-50.8
X58.42Y-50.8
X60.96Y-50.8
X63.5Y-50.8
X45.72Y-2.54
X48.26Y-2.54
X50.8Y-2.54
X53.34Y-2.54
X55.88Y-2.54
X58.42Y-2.54
X60.96Y-2.54
X63.5Y-2.54
X18.796Y-2.54
X21.336Y-2.54
X23.876Y-2.54
X26.416Y-2.54
X28.956Y-2.54
X31.496Y-2.54
X34.036Y-2.54
X36.576Y-2.54
X39.116Y-2.54
X41.656Y-2.54
T5
X15.24Y-2.54
X66.04Y-17.78
X66.04Y-45.72
X13.97Y-50.8
T0
M30
