G04 #@! TF.GenerationSoftware,KiCad,Pcbnew,(5.1.5-0-10_14)*
G04 #@! TF.CreationDate,2020-11-13T22:28:22-08:00*
G04 #@! TF.ProjectId,UNO_SF_ISP_Shield,554e4f5f-5346-45f4-9953-505f53686965,rev?*
G04 #@! TF.SameCoordinates,PX69db1f0PY45a45e8*
G04 #@! TF.FileFunction,Copper,L1,Top*
G04 #@! TF.FilePolarity,Positive*
%FSLAX46Y46*%
G04 Gerber Fmt 4.6, Leading zero omitted, Abs format (unit mm)*
G04 Created by KiCad (PCBNEW (5.1.5-0-10_14)) date 2020-11-13 22:28:22*
%MOMM*%
%LPD*%
G04 APERTURE LIST*
%ADD10O,1.727200X2.032000*%
%ADD11C,4.064000*%
%ADD12R,1.800000X1.800000*%
%ADD13C,1.800000*%
%ADD14R,1.700000X1.700000*%
%ADD15O,1.700000X1.700000*%
%ADD16C,1.600000*%
%ADD17O,1.600000X1.600000*%
%ADD18C,0.500000*%
G04 APERTURE END LIST*
D10*
X27940000Y-50800000D03*
X30480000Y-50800000D03*
X33020000Y-50800000D03*
X35560000Y-50800000D03*
X38100000Y-50800000D03*
X43180000Y-50800000D03*
X45720000Y-50800000D03*
X50800000Y-50800000D03*
X53340000Y-50800000D03*
X55880000Y-50800000D03*
X58420000Y-50800000D03*
X60960000Y-50800000D03*
X63500000Y-50800000D03*
X18796000Y-2540000D03*
X21336000Y-2540000D03*
X23876000Y-2540000D03*
X26416000Y-2540000D03*
X28956000Y-2540000D03*
X31496000Y-2540000D03*
X34036000Y-2540000D03*
X36576000Y-2540000D03*
X39116000Y-2540000D03*
X41656000Y-2540000D03*
X45720000Y-2540000D03*
X48260000Y-2540000D03*
X50800000Y-2540000D03*
X53340000Y-2540000D03*
X55880000Y-2540000D03*
X58420000Y-2540000D03*
X60960000Y-2540000D03*
X63500000Y-2540000D03*
D11*
X13970000Y-50800000D03*
X66040000Y-45720000D03*
X15240000Y-2540000D03*
X66040000Y-17780000D03*
D12*
X57350000Y-12700000D03*
D13*
X57350000Y-10160000D03*
X52070000Y-10160000D03*
D12*
X52070000Y-12700000D03*
X46990000Y-12700000D03*
D13*
X46990000Y-10160000D03*
D14*
X25400000Y-26670000D03*
D15*
X27940000Y-26670000D03*
X25400000Y-29210000D03*
X27940000Y-29210000D03*
X25400000Y-31750000D03*
X27940000Y-31750000D03*
D16*
X39370000Y-15240000D03*
D17*
X24130000Y-15240000D03*
X24130000Y-11430000D03*
D16*
X39370000Y-11430000D03*
X39370000Y-7620000D03*
D17*
X24130000Y-7620000D03*
D18*
X30540011Y-29270011D02*
X28789999Y-27519999D01*
X30540011Y-43087611D02*
X30540011Y-29270011D01*
X38100000Y-50647600D02*
X30540011Y-43087611D01*
X28789999Y-27519999D02*
X27940000Y-26670000D01*
X38100000Y-50800000D02*
X38100000Y-50647600D01*
X27090001Y-32599999D02*
X27940000Y-31750000D01*
X25326380Y-34363620D02*
X27090001Y-32599999D01*
X25326380Y-52034996D02*
X25326380Y-34363620D01*
X26973114Y-53681730D02*
X25326380Y-52034996D01*
X40450670Y-53681730D02*
X26973114Y-53681730D01*
X43180000Y-50952400D02*
X40450670Y-53681730D01*
X43180000Y-50800000D02*
X43180000Y-50952400D01*
X24130000Y-15240000D02*
X24130000Y-11430000D01*
X24130000Y-11430000D02*
X24130000Y-7620000D01*
X26416000Y-2692400D02*
X26416000Y-2540000D01*
X25052400Y-4056000D02*
X26416000Y-2692400D01*
X24900000Y-4056000D02*
X25052400Y-4056000D01*
X24130000Y-4826000D02*
X24900000Y-4056000D01*
X24130000Y-7620000D02*
X24130000Y-4826000D01*
X45717208Y-10160000D02*
X46990000Y-10160000D01*
X45220000Y-10160000D02*
X45717208Y-10160000D01*
X39116000Y-4056000D02*
X45220000Y-10160000D01*
X39116000Y-2540000D02*
X39116000Y-4056000D01*
X50797208Y-10160000D02*
X52070000Y-10160000D01*
X50639600Y-10160000D02*
X50797208Y-10160000D01*
X43019600Y-2540000D02*
X50639600Y-10160000D01*
X41656000Y-2540000D02*
X43019600Y-2540000D01*
X55699999Y-8509999D02*
X56450001Y-9260001D01*
X51537599Y-8509999D02*
X55699999Y-8509999D01*
X56450001Y-9260001D02*
X57350000Y-10160000D01*
X45720000Y-2692400D02*
X51537599Y-8509999D01*
X45720000Y-2540000D02*
X45720000Y-2692400D01*
X24197919Y-29210000D02*
X25400000Y-29210000D01*
X23799999Y-28812080D02*
X24197919Y-29210000D01*
X23799999Y-25219999D02*
X23799999Y-28812080D01*
X28956000Y-20063998D02*
X23799999Y-25219999D01*
X28956000Y-2540000D02*
X28956000Y-20063998D01*
X24550001Y-32599999D02*
X25400000Y-31750000D01*
X24326370Y-32823630D02*
X24550001Y-32599999D01*
X24326370Y-52449213D02*
X24326370Y-32823630D01*
X47333610Y-51620779D02*
X44272649Y-54681740D01*
X26558897Y-54681740D02*
X24326370Y-52449213D01*
X36576000Y-39221611D02*
X47333610Y-49979221D01*
X44272649Y-54681740D02*
X26558897Y-54681740D01*
X47333610Y-49979221D02*
X47333610Y-51620779D01*
X36576000Y-2540000D02*
X36576000Y-39221611D01*
X31496000Y-20574000D02*
X25400000Y-26670000D01*
X31496000Y-2540000D02*
X31496000Y-20574000D01*
X39713610Y-51620779D02*
X38768379Y-52566010D01*
X39713610Y-49979221D02*
X39713610Y-51620779D01*
X34036000Y-44301611D02*
X39713610Y-49979221D01*
X34036000Y-2540000D02*
X34036000Y-44301611D01*
X26326390Y-51620779D02*
X26326390Y-49873610D01*
X27271621Y-52566010D02*
X26326390Y-51620779D01*
X38768379Y-52566010D02*
X27271621Y-52566010D01*
X29540001Y-30810001D02*
X28789999Y-30059999D01*
X29540001Y-46659999D02*
X29540001Y-30810001D01*
X28789999Y-30059999D02*
X27940000Y-29210000D01*
X26326390Y-49873610D02*
X29540001Y-46659999D01*
X40169999Y-16039999D02*
X39370000Y-15240000D01*
X52610001Y-16039999D02*
X40169999Y-16039999D01*
X55950000Y-12700000D02*
X52610001Y-16039999D01*
X57350000Y-12700000D02*
X55950000Y-12700000D01*
X40169999Y-12229999D02*
X39370000Y-11430000D01*
X42290001Y-14350001D02*
X40169999Y-12229999D01*
X49019999Y-14350001D02*
X42290001Y-14350001D01*
X50670000Y-12700000D02*
X49019999Y-14350001D01*
X52070000Y-12700000D02*
X50670000Y-12700000D01*
X44450000Y-12700000D02*
X39370000Y-7620000D01*
X46990000Y-12700000D02*
X44450000Y-12700000D01*
M02*
